HIERARCHY
ROOT Hips
{
	OFFSET 0.000000 0.000000 0.000000
	CHANNELS 6 Xposition Yposition Zposition Xrotation Yrotation Zrotation
	JOINT LeftUpLeg_virtual
	{
		OFFSET 0.000000 0.000000 0.000000
		CHANNELS 3 Xrotation Yrotation Zrotation
		JOINT LeftUpLeg
		{
			OFFSET 13.026900 -6.336304 -1.092800
			CHANNELS 3 Xrotation Yrotation Zrotation
			JOINT LeftLeg
			{
				OFFSET 0.524474 -46.096886 9.782700
				CHANNELS 3 Xrotation Yrotation Zrotation
				JOINT LeftFoot
				{
					OFFSET -0.524474 -53.427422 -12.948200
					CHANNELS 3 Xrotation Yrotation Zrotation
					JOINT LeftToeBase
					{
						OFFSET 0.192200 -14.009700 16.364100
						CHANNELS 3 Xrotation Yrotation Zrotation
						JOINT LeftToe_End
						{
							OFFSET -1.784700 -0.561700 9.474800
							CHANNELS 3 Xrotation Yrotation Zrotation
							End Site
							{
								OFFSET 0 0 0
							}
						}
					}
				}
			}
		}
	}
	JOINT RightUpLeg_virtual
	{
		OFFSET 0.000000 0.000000 0.000000
		CHANNELS 3 Xrotation Yrotation Zrotation
		JOINT RightUpLeg
		{
			OFFSET -12.883000 -6.336304 -1.092800
			CHANNELS 3 Xrotation Yrotation Zrotation
			JOINT RightLeg
			{
				OFFSET -0.524587 -46.096825 9.782800
				CHANNELS 3 Xrotation Yrotation Zrotation
				JOINT RightFoot
				{
					OFFSET 0.524587 -53.427383 -12.948300
					CHANNELS 3 Xrotation Yrotation Zrotation
					JOINT RightToeBase
					{
						OFFSET -0.192200 -14.009700 16.364100
						CHANNELS 3 Xrotation Yrotation Zrotation
						JOINT RightToe_End
						{
							OFFSET 1.784700 -0.561700 9.474800
							CHANNELS 3 Xrotation Yrotation Zrotation
							End Site
							{
								OFFSET 0 0 0
							}
						}
					}
				}
			}
		}
	}
	JOINT Spine_virtual
	{
		OFFSET 0.000000 0.000000 0.000000
		CHANNELS 3 Xrotation Yrotation Zrotation
		JOINT Spine
		{
			OFFSET 0.072000 7.257294 -0.789700
			CHANNELS 3 Xrotation Yrotation Zrotation
			JOINT Spine1
			{
				OFFSET 0.000000 12.508769 -0.658067
				CHANNELS 3 Xrotation Yrotation Zrotation
				JOINT Spine1_split
				{
					OFFSET 0.000000 12.508769 -0.658067
					CHANNELS 3 Xrotation Yrotation Zrotation
					JOINT Spine2
					{
						OFFSET 0.000000 12.508769 -0.658067
						CHANNELS 3 Xrotation Yrotation Zrotation
						JOINT Neck_virtual
						{
							OFFSET 0.000000 0.000000 0.000000
							CHANNELS 3 Xrotation Yrotation Zrotation
							JOINT Neck
							{
								OFFSET 0.000000 14.033295 7.520400
								CHANNELS 3 Xrotation Yrotation Zrotation
								JOINT Head
								{
									OFFSET 0.000000 8.198502 5.703100
									CHANNELS 3 Xrotation Yrotation Zrotation
									JOINT HeadTop_End
									{
										OFFSET 0.000000 17.760803 13.332701
										CHANNELS 3 Xrotation Yrotation Zrotation
										End Site
										{
											OFFSET 0 0 0
										}
									}
								}
							}
						}
						JOINT LeftShoulder_virtual
						{
							OFFSET 0.000000 0.000000 0.000000
							CHANNELS 3 Xrotation Yrotation Zrotation
							JOINT LeftShoulder
							{
								OFFSET 6.292450 5.785301 -0.669000
								CHANNELS 3 Xrotation Yrotation Zrotation
								JOINT LeftShoulder_split
								{
									OFFSET 6.292450 5.785301 -0.669000
									CHANNELS 3 Xrotation Yrotation Zrotation
									JOINT LeftArm
									{
										OFFSET 13.907140 -6.093903 1.965100
										CHANNELS 3 Xrotation Yrotation Zrotation
										JOINT LeftForeArm
										{
											OFFSET 34.140198 0.000000 0.000000
											CHANNELS 3 Xrotation Yrotation Zrotation
											JOINT LeftHand
											{
												OFFSET 40.960209 0.000000 0.000000
												CHANNELS 3 Xrotation Yrotation Zrotation
												End Site
												{
													OFFSET 0 0 0
												}
											}
										}
									}
								}
							}
						}
						JOINT RightShoulder_virtual
						{
							OFFSET 0.000000 0.000000 0.000000
							CHANNELS 3 Xrotation Yrotation Zrotation
							JOINT RightShoulder
							{
								OFFSET -6.292450 5.785301 -0.669000
								CHANNELS 3 Xrotation Yrotation Zrotation
								JOINT RightShoulder_split
								{
									OFFSET -6.292450 5.785301 -0.669000
									CHANNELS 3 Xrotation Yrotation Zrotation
									JOINT RightArm
									{
										OFFSET -13.907140 -6.093903 1.965100
										CHANNELS 3 Xrotation Yrotation Zrotation
										JOINT RightForeArm
										{
											OFFSET -34.140198 0.000000 0.000000
											CHANNELS 3 Xrotation Yrotation Zrotation
											JOINT RightHand
											{
												OFFSET -40.960209 0.000000 0.000000
												CHANNELS 3 Xrotation Yrotation Zrotation
												End Site
												{
													OFFSET 0 0 0
												}
											}
										}
									}
								}
							}
						}
					}
				}
			}
		}
	}
}
MOTION
Frames: 6
Frame Time: 0.03333333
17.887457 64.184265 -52.942200 0.000000 0.000000 0.000000 49.758495 -29.329973 16.074668 -60.762797 -2.949961 -1.489936 101.077681 -4.050490 1.565146 5.487937 -7.311511 -8.794728 11.489152 -5.224684 -19.056498 0.000000 0.000000 0.000000 49.758495 -29.329973 16.074668 -113.789032 -4.643564 -23.832970 104.805271 -11.814350 6.409912 -15.953526 -8.341929 4.927680 -10.720148 -0.000013 0.000003 0.000000 0.000000 0.000000 49.758495 -29.329973 16.074668 30.344816 9.736355 4.447838 6.852553 2.109581 1.261714 0.000000 0.000000 0.000000 0.000000 0.000000 0.000000 6.827499 2.179072 1.278347 -8.363017 -4.563619 1.740612 -21.240567 -18.756118 -6.620601 0.000000 0.000000 0.000000 6.827499 2.179072 1.278347 5.608883 -23.469903 -9.113349 0.000000 0.000000 0.000000 -29.183179 -12.430049 -40.885410 -0.000012 -37.552646 -0.000006 0.000000 0.000000 0.000000 6.827499 2.179072 1.278347 -0.559057 30.137185 14.434194 0.000000 0.000000 0.000000 -44.135808 50.708735 11.921778 -0.000005 9.608866 0.000019 0.000000 0.000000 0.000000 
18.147856 64.776443 -52.589638 0.000000 0.000000 0.000000 48.933958 -30.605982 16.074447 -64.189127 -4.074920 -0.144160 103.408080 -3.752386 0.718297 7.779838 -6.664115 -8.004269 7.175565 -3.663903 -16.288294 0.000000 0.000000 0.000000 48.933958 -30.605982 16.074447 -111.899638 -5.105945 -23.091942 103.890872 -11.648316 6.327687 -16.190316 -8.314787 5.042282 -10.407071 -0.000023 -0.000002 0.000000 0.000000 0.000000 48.933958 -30.605982 16.074447 30.408870 9.736150 3.916101 6.860057 2.066864 1.129957 0.000000 0.000000 0.000000 0.000000 0.000000 0.000000 6.835854 2.135327 1.146297 -7.949791 -4.235520 1.372954 -21.131458 -17.422406 -7.101430 0.000000 0.000000 0.000000 6.835854 2.135327 1.146297 5.673069 -23.734077 -9.066829 0.000000 0.000000 0.000000 -27.862351 -10.438779 -41.186468 -0.000020 -38.893450 -0.000013 0.000000 0.000000 0.000000 6.835854 2.135327 1.146297 -0.454822 29.350996 14.140377 0.000000 0.000000 0.000000 -42.011930 48.862719 12.344902 -0.000003 14.620230 -0.000004 0.000000 0.000000 0.000000 
18.335438 65.474228 -51.961548 0.000000 0.000000 0.000000 48.106440 -31.899497 16.109037 -67.751761 -5.317343 0.976530 105.431900 -3.755884 0.212339 10.329685 -5.477923 -8.312988 0.571520 -1.755222 -12.045396 0.000000 0.000000 0.000000 48.106440 -31.899497 16.109037 -109.635519 -5.324338 -22.475103 102.859459 -11.399413 6.288498 -16.379041 -8.272039 5.701593 -10.060360 -0.000025 -0.000005 0.000000 0.000000 0.000000 48.106440 -31.899497 16.109037 30.572784 9.861126 3.214317 6.900520 2.048711 0.955040 0.000000 0.000000 0.000000 0.000000 0.000000 0.000000 6.876926 2.117282 0.970885 -7.571697 -3.834399 0.935143 -20.880423 -15.870568 -7.421789 0.000000 0.000000 0.000000 6.876926 2.117282 0.970885 5.697503 -23.899192 -8.949583 0.000000 0.000000 0.000000 -27.065934 -8.692580 -41.259848 0.000004 -40.071600 -0.000006 0.000000 0.000000 0.000000 6.876926 2.117282 0.970885 -0.244505 28.311465 13.397237 0.000000 0.000000 0.000000 -39.815884 48.075267 12.700984 -0.000002 18.268886 0.000014 0.000000 0.000000 0.000000 
18.472973 66.383224 -51.010185 0.000000 0.000000 0.000000 47.016051 -33.244508 16.239726 -71.007780 -6.124881 1.073136 106.993937 -4.124988 0.785083 12.495075 -4.477714 -10.141869 -8.005730 -0.295707 -6.701237 0.000000 0.000000 0.000000 47.016051 -33.244508 16.239726 -106.743071 -5.296681 -21.726997 101.608312 -11.010895 6.167109 -16.827025 -8.460981 6.443629 -9.529919 -0.000000 -0.000006 0.000000 0.000000 0.000000 47.016051 -33.244508 16.239726 31.051847 10.020940 2.224044 6.973885 2.045120 0.742942 0.000000 0.000000 0.000000 0.000000 0.000000 0.000000 6.951644 2.112848 0.758498 -7.147390 -3.347715 0.366291 -20.800959 -14.109167 -7.588876 0.000000 0.000000 0.000000 6.951644 2.112848 0.758498 5.880281 -24.606310 -8.861680 0.000000 0.000000 0.000000 -26.458087 -6.906709 -40.061570 -0.000027 -41.627428 -0.000007 0.000000 0.000000 0.000000 6.951644 2.112848 0.758498 0.069426 27.515627 12.075453 0.000000 0.000000 0.000000 -38.169139 47.324564 12.915027 -0.000008 21.820982 0.000019 0.000000 0.000000 0.000000 
18.502398 67.546417 -49.750221 0.000000 0.000000 0.000000 46.007003 -34.543788 16.378812 -74.647465 -6.947301 1.064335 108.515703 -4.553887 1.864726 13.670660 -3.162027 -11.662161 -20.104623 -0.524577 2.272767 0.000000 0.000000 0.000000 46.007003 -34.543788 16.378812 -103.381491 -5.234382 -20.744738 99.998307 -10.268258 6.055498 -17.532952 -9.218496 7.146190 -8.882329 0.000003 0.000004 0.000000 0.000000 0.000000 46.007003 -34.543788 16.378812 31.536442 10.223055 1.134613 7.073824 2.060561 0.500867 0.000000 0.000000 0.000000 0.000000 0.000000 0.000000 7.052991 2.127538 0.515819 -6.700963 -2.817860 -0.200200 -20.783260 -12.215091 -7.424482 0.000000 0.000000 0.000000 7.052991 2.127538 0.515819 6.184828 -25.737507 -8.719600 0.000000 0.000000 0.000000 -25.567734 -5.399174 -37.802905 0.000017 -43.339319 0.000003 0.000000 0.000000 0.000000 7.052991 2.127538 0.515819 0.371337 27.275242 10.690508 0.000000 0.000000 0.000000 -37.139154 46.241948 12.993756 0.000002 25.612272 0.000010 0.000000 0.000000 0.000000 
18.432968 68.919937 -48.191574 0.000000 0.000000 0.000000 45.477117 -35.353595 16.435541 -79.199472 -9.049165 2.967228 109.619195 -4.785300 2.207823 15.010504 -2.002432 -11.788107 -30.101494 -2.437058 8.375452 0.000000 0.000000 0.000000 45.477117 -35.353595 16.435541 -99.912321 -5.196694 -19.900098 98.078839 -9.235945 6.162252 -18.627043 -10.364648 7.520435 -8.305799 0.000033 0.000004 0.000000 0.000000 0.000000 45.477117 -35.353595 16.435541 31.655625 10.373638 0.348913 7.064895 2.055942 0.350512 0.000000 0.000000 0.000000 0.000000 0.000000 0.000000 7.044986 2.121781 0.364700 -6.408408 -2.310498 -0.579004 -20.734692 -10.181999 -7.264284 0.000000 0.000000 0.000000 7.044986 2.121781 0.364700 6.320875 -26.347277 -8.474961 0.000000 0.000000 0.000000 -25.121724 -4.615665 -35.775383 -0.000019 -44.098860 -0.000009 0.000000 0.000000 0.000000 7.044986 2.121781 0.364700 0.673116 27.111017 9.277728 0.000000 0.000000 0.000000 -37.002010 45.385606 13.518133 0.000001 29.168398 -0.000002 0.000000 0.000000 0.000000 
